<svg width="40" height="40" viewBox="0 0 40 40" fill="none" xmlns="http://www.w3.org/2000/svg">
<path fill-rule="evenodd" clip-rule="evenodd" d="M20.3937 39.9962C31.2577 39.7865 40 30.9142 40 20C40 8.9543 31.0457 0 20 0C8.9543 0 0 8.9543 0 20C0 20.3698 0.0100357 20.7372 0.0298495 21.1021C2.04433 21.3629 4.14688 21.7997 6.33751 22.4413C6.87071 22.228 7.32774 21.9995 7.73907 21.7558L2.84884 20.2628C7.48009 20.6589 10.6641 16.1038 12.0199 13.6815C9.6586 11.9753 9.73478 10.1929 10.8164 9.41592C11.182 9.15389 11.6543 9.00002 12.1875 9.00002C13.3758 8.99545 14.8688 9.71451 16.0875 11.5792C26.4621 9.72061 32.632 10.787 34.7344 13.9558C34.9934 14.3519 35.1914 14.7784 35.3285 15.2659C32.0531 14.4737 29.4785 16.3476 29.4785 16.3476L30.225 18.7089L31.8246 18.6327C30.8649 16.5151 34.0641 16.18 34.0945 18.5108L35.5723 18.389C35.4352 20.6437 34.7496 23.2183 33.9879 25.5948C33.7289 26.387 33.0891 27.0116 32.2816 27.2706C29.0824 28.2304 25.6395 28.5655 22.1356 27.9714C22.8969 34.2094 21.725 37.8884 20.3937 39.9962ZM18.8763 39.969L19.2867 39.062L18.982 37.371C18.5968 38.2663 18.1618 39.0692 17.6819 39.8671C18.0766 39.9127 18.4749 39.9467 18.8763 39.969ZM19.7895 14.1538C21.6785 14.3671 23.1258 14.8089 24.3902 15.6163H21.968C21.7242 16.3476 20.8254 16.896 19.759 16.896C18.6926 16.896 17.7938 16.3476 17.55 15.6163H15.1887C15.8285 15.1593 17.5195 14.1386 19.7895 14.1538Z" fill="url(#paint0_linear_13_7106)"/>
<defs>
<linearGradient id="paint0_linear_13_7106" x1="8" y1="-1.78814e-07" x2="31" y2="40" gradientUnits="userSpaceOnUse">
<stop offset="0.21875" stop-color="#ED7356"/>
<stop offset="1" stop-color="#5050FF"/>
</linearGradient>
</defs>
</svg>
