<svg width="143" height="119" viewBox="0 0 143 119" fill="none" xmlns="http://www.w3.org/2000/svg">
<path fill-rule="evenodd" clip-rule="evenodd" d="M126.188 25.5772C126.096 25.5079 125.881 25.4835 125.78 25.4626C125.362 25.3766 124.931 25.3391 124.504 25.3391C123.191 25.3413 121.856 25.476 120.565 25.7092C119.743 25.8571 118.753 26.3555 117.936 26.0848C116.515 25.6134 115.078 25.6366 113.729 26.3097C112.496 26.9251 111.56 28.0941 111.013 29.3572C110.931 29.5479 110.597 30.2497 110.502 30.7228C110.462 30.8195 110.423 30.9168 110.388 31.0156C110.288 31.2963 110.199 31.5818 110.116 31.8681C110.08 31.9901 109.992 32.2596 110.097 32.3117C109.928 32.6377 109.778 32.9735 109.654 33.3202C109.291 34.3288 108.894 35.4352 108.766 36.504C108.719 36.8998 108.717 37.2979 108.761 37.6945C108.783 37.8906 108.774 38.2846 108.901 38.4337C109.171 38.7499 109.31 38.3072 109.279 38.0963C109.047 36.4892 109.496 34.9799 110.027 33.4692C110.371 32.4924 110.936 31.5986 111.569 30.7893C112.081 30.1341 112.631 29.6182 113.333 29.1839C114.191 28.6527 115.109 28.2233 116.019 27.7925C116.617 27.5092 117.216 27.2333 117.831 26.9892C117.967 26.9348 118.182 26.7954 118.334 26.7949C118.655 26.7938 119.11 27.0409 119.419 27.1328C120.437 27.4355 121.468 27.8229 122.522 27.9774C123.196 28.0766 123.83 27.9649 124.46 27.7299C124.525 27.706 124.633 27.6443 124.766 27.5561C125.235 27.3677 125.678 27.1305 126.064 26.7883C126.287 26.5913 126.489 26.3364 126.673 26.1032C126.728 26.0336 126.752 25.9537 126.754 25.8777C126.795 25.855 126.822 25.8282 126.829 25.7972C126.875 25.5677 126.456 25.5636 126.188 25.5772Z" fill="#89C5CC"/>
<path fill-rule="evenodd" clip-rule="evenodd" d="M19.459 44.7077C19.2013 44.9258 18.9486 45.1487 18.702 45.3803C18.5139 45.5571 18.1813 45.7686 18.1138 46.0362C18.0436 46.3143 18.2651 46.5746 18.44 46.7427C19.3651 47.6321 20.4068 48.2334 21.6887 48.3334C23.6626 48.4874 25.3804 47.9606 27.093 46.9244C28.296 46.1963 29.0928 45.1196 29.2668 43.6656C30.6995 44.2877 32.085 45.1453 33.2625 46.1977C33.8435 46.717 34.3439 47.2925 34.8067 47.9301C35.1032 48.3387 35.3899 48.7538 35.656 49.1849C35.7716 49.3723 35.8893 49.7043 36.0802 49.8121C36.3045 49.939 36.5755 49.7402 36.5644 49.4799C36.555 49.2631 36.3311 49.0116 36.2262 48.8344C36.0524 48.5402 35.8758 48.2479 35.6898 47.9617C35.3889 47.4984 35.0779 47.0416 34.7388 46.608C33.9764 45.6338 33.0065 44.8291 32.0012 44.1428C30.0724 42.8262 27.9556 41.9968 25.6088 41.9265C24.1657 41.8833 22.9518 42.3985 21.7177 43.1677C20.9494 43.6469 20.1563 44.1178 19.459 44.7077Z" fill="#DDE3E9"/>
<path fill-rule="evenodd" clip-rule="evenodd" d="M38.1782 38.3399C36.6743 36.7216 35.1653 35.1237 33.4852 33.6988C32.495 32.859 31.4515 32.0956 30.4296 31.2994C30.5474 31.4074 30.663 31.5184 30.7759 31.6322C30.4569 31.4059 30.0394 31.278 29.7012 31.0685C29.324 30.8349 28.9633 30.5678 28.6096 30.2983C27.9191 29.7726 27.2391 29.2369 26.5293 28.7387C25.7386 28.1836 24.9192 27.6707 24.115 27.1366C23.4324 26.6832 22.7416 26.187 22.0114 25.8165C21.6135 25.6145 21.2147 25.375 20.8151 25.1643C20.6814 25.0938 19.3244 24.1986 19.3278 24.1959C19.4027 24.1368 20.0857 24.4721 20.1912 24.5171C20.4997 24.6488 20.7948 24.8063 21.0912 24.9632C20.9285 24.6277 20.7997 24.2753 20.7295 23.9041C20.7078 23.7897 20.5343 22.9559 20.6231 22.8859C20.6674 22.8511 21.1003 24.3427 21.1225 24.4862C21.1406 24.6026 21.1378 24.7705 21.1744 24.8808C21.2333 25.0588 21.2304 25.0051 21.3602 25.1054C21.5981 25.2894 21.9139 25.4043 22.1712 25.5581C22.3102 25.6391 22.7401 25.9602 22.999 26.0517C23.7824 26.4495 24.5765 27.061 25.3209 27.5688C25.1255 27.1852 24.9768 26.784 24.8685 26.3638C24.8427 26.2639 24.5644 25.3686 24.632 25.3154C24.708 25.2557 25.2381 26.6231 25.2695 26.7525C25.3277 26.993 25.3399 27.2607 25.413 27.4946C25.493 27.7514 25.7432 27.8424 25.9687 27.9921C26.7981 28.5428 27.5993 29.1279 28.3869 29.74C29.2464 28.1427 28.2554 26.2141 27.4203 24.874C26.8181 23.9082 26.0078 23.0801 25.152 22.3572C24.0098 21.3925 22.7032 20.6216 21.3981 19.9166C19.8775 19.0952 18.2339 18.5863 16.5251 18.3511C15.6314 18.2282 14.7173 18.2315 13.8145 18.271C13.3736 18.2903 12.9502 18.3513 12.5277 18.5015C12.3371 18.5693 12.153 18.6548 11.9737 18.7505C11.8374 18.8231 11.5076 18.9 11.4294 19.0083C10.7842 19.8855 10.4543 20.7598 10.5047 21.8622C10.5523 22.9057 10.8677 23.9498 11.2957 24.8808C11.7725 25.9173 12.3856 26.8581 13.1876 27.6475C13.7993 28.25 14.4833 28.7744 15.1628 29.2917C17.5795 31.132 20.6434 32.7327 23.7735 32.3215C24.7867 32.1884 25.7504 31.8182 26.6509 31.3151C26.8632 31.1964 27.0741 31.0765 27.2744 30.9366C27.4095 30.8422 27.7706 30.417 27.9063 30.4017C28.0926 30.3804 28.4936 30.7762 28.6683 30.8967C29.996 31.8123 31.2888 32.7776 32.5544 33.7819C33.9012 34.8506 35.1817 35.9918 36.4246 37.1867C36.9532 37.695 37.4785 38.2043 37.9917 38.7297C38.1112 38.8519 38.4034 39.3019 38.6201 39.3225C38.7571 39.3353 38.8495 39.2131 38.83 39.0805C38.796 38.8503 38.3322 38.5055 38.1782 38.3399Z" fill="#C1DEE2"/>
<path fill-rule="evenodd" clip-rule="evenodd" d="M124.609 32.0594C124.026 31.9265 123.383 31.9366 122.79 31.9475C119.608 31.9928 116.483 33.5671 114.449 36.0824C112.718 38.2238 112.241 40.8862 111.899 43.5775C111.866 43.8446 111.851 44.1101 111.832 44.378C111.828 44.4354 111.822 44.4866 111.815 44.535C111.681 44.6606 111.61 44.8071 111.69 44.9681C111.393 45.6456 111.143 46.3403 110.927 47.057C110.294 49.1662 109.651 51.3155 110.047 53.5334C110.14 52.3129 110.335 51.0648 110.568 49.8643C110.581 49.7954 110.596 49.727 110.611 49.6589C110.613 49.6517 110.614 49.6444 110.615 49.6373C110.698 49.2697 110.805 48.9131 110.936 48.5621C110.937 48.5582 110.938 48.5545 110.94 48.5507C110.957 48.5045 110.975 48.4585 110.993 48.4126C111.031 48.3175 111.069 48.2226 111.11 48.1282C111.124 48.0959 111.137 48.0634 111.15 48.0307C111.34 47.5443 111.42 46.9961 111.59 46.4929C111.631 46.3785 111.673 46.2645 111.718 46.151C111.72 46.1444 111.723 46.1378 111.726 46.1312C111.846 45.8259 111.979 45.5245 112.12 45.2261C112.197 45.166 112.238 45.017 112.304 44.8815C112.317 44.8548 112.424 44.6769 112.456 44.5743C112.539 44.4067 112.621 44.2391 112.705 44.0718C112.702 44.0728 112.7 44.0737 112.697 44.0748C112.781 43.914 112.864 43.7541 112.948 43.5948C112.966 43.5598 112.984 43.5248 113.003 43.4897C113.033 43.4338 113.063 43.378 113.092 43.3223C113.371 42.8011 113.667 42.2903 113.973 41.7859C114.083 41.6058 114.345 41.3476 114.395 41.1456C114.397 41.138 114.397 41.131 114.398 41.1239C115.064 40.1463 115.831 39.2448 116.751 38.5305C116.64 38.6561 116.403 39.0821 116.341 39.1665C116.15 39.4247 115.942 39.6651 115.734 39.9085C115.361 40.3444 114.997 40.7941 114.673 41.2696C114.081 42.1394 113.571 43.0546 113.088 43.9884C113.083 43.9938 113.078 43.999 113.074 44.0047C112.831 44.3171 112.679 44.7893 112.504 45.1467C113.195 44.8123 113.959 44.5944 114.668 44.2975C115.376 44.0015 116.064 43.6717 116.728 43.2846C117.611 42.77 118.527 42.1892 119.361 41.5318C120.317 40.9122 121.12 40.0594 121.828 39.1645C122.669 38.1056 123.437 37.0376 123.912 35.752C124.146 35.1203 124.329 34.4614 124.438 33.7949C124.443 33.766 124.45 33.7345 124.455 33.7018C124.568 33.4716 124.667 33.2362 124.75 32.9955C124.884 32.6136 125.196 32.1936 124.609 32.0594Z" fill="#69A1AC"/>
<path fill-rule="evenodd" clip-rule="evenodd" d="M13.8266 34.0853C13.5957 33.8449 13.3365 33.6279 13.0322 33.4732C12.9551 33.4341 12.382 33.172 12.3446 33.2296C12.2577 33.3635 13.7573 34.0085 13.8266 34.0853ZM16.5442 32.4791C16.5423 32.4893 16.7411 32.8137 16.7953 32.9134C16.9104 33.1256 17.0168 33.3419 17.1168 33.5585C16.9688 33.1757 16.8166 32.8208 16.5442 32.4791ZM2.64505 35.1204C2.45361 35.1797 2.22357 34.9459 2.47172 34.8883C2.67272 34.8421 2.66282 34.8312 2.75299 34.6756C2.82625 34.5491 2.87151 34.3949 2.93572 34.2623C3.072 33.9807 3.22673 33.7123 3.41663 33.4609C3.82343 32.9218 4.3192 32.4571 4.87526 32.0658C5.84562 31.3825 6.93348 30.7583 8.0876 30.4446C9.92262 29.9459 12.0112 29.915 13.8492 30.2608C14.9874 30.475 16.0278 30.8472 16.7835 31.7291C17.1612 32.1697 17.4579 32.6861 17.5875 33.2546C17.6213 33.4031 17.615 33.5683 17.6574 33.7139C17.7224 33.9375 17.6937 33.8779 17.9656 33.9215C18.2626 33.9689 18.5592 34.0175 18.8557 34.0669C19.6322 34.1961 20.4134 34.3333 21.1699 34.543C21.4191 34.612 21.6626 34.6963 21.9005 34.7944C22.0804 34.8683 22.7969 35.1008 22.884 35.3258C23.029 35.7 22.5433 35.5303 22.3925 35.4489C22.2604 35.3774 22.1246 35.3108 21.9869 35.2496C21.6403 35.0953 21.2791 34.9759 20.9097 34.8808C20.5106 34.778 20.1032 34.7014 19.6975 34.6245C19.3192 34.553 18.9394 34.4878 18.5591 34.4257C18.3478 34.3911 18.1364 34.3576 17.925 34.3239C17.8527 34.3124 17.7255 34.2523 17.7351 34.3426C17.2905 34.2601 16.8098 34.2721 16.357 34.2493C15.8025 34.2216 15.2458 34.1988 14.6894 34.2154C14.2881 34.2275 13.8864 34.2528 13.4871 34.3046C13.2538 34.3349 13.0243 34.3793 12.7953 34.4356C12.6696 34.4664 12.1738 34.5317 12.1053 34.6372C12.1347 34.5919 12.6819 34.636 12.7516 34.6333C13.0301 34.6233 13.3066 34.5967 13.5841 34.5669C14.0992 34.5116 14.6146 34.4827 15.1312 34.4868C15.1293 34.574 14.7763 34.7295 14.6901 34.7873C14.4969 34.917 14.312 35.0585 14.1393 35.2138C13.8353 35.4871 13.4712 35.8256 13.2608 36.1495C13.3228 36.054 13.6287 35.9299 13.7371 35.857C13.911 35.7402 14.0812 35.6154 14.2425 35.4821C14.3912 35.3592 14.5301 35.2262 14.6665 35.0904C14.803 34.9547 14.9883 34.6724 15.1676 34.5819C15.1785 34.5763 15.2567 34.6358 15.3011 34.6156C15.3459 34.5953 15.4015 34.4934 15.413 34.4893C15.58 34.4274 15.897 34.5044 16.0725 34.5123C16.5278 34.5325 16.9826 34.5589 17.4374 34.583C17.5783 34.5903 17.6982 34.5596 17.7513 34.6595C17.808 34.7662 17.7041 35.0466 17.6746 35.1627C17.5648 35.5942 17.3701 35.9812 17.0634 36.3155C16.4892 36.9416 15.781 37.359 14.9811 37.6383C11.9171 38.7079 8.65732 39.1362 5.59423 38.0235C4.3262 37.563 2.41638 36.7398 2.64505 35.1204Z" fill="#89C5CC"/>
<mask id="mask0_3_528" style="mask-type:luminance" maskUnits="userSpaceOnUse" x="0" y="55" width="143" height="49">
<path d="M143 55.1332H0V103.767H143V55.1332Z" fill="white"/>
</mask>
<g mask="url(#mask0_3_528)">
<g opacity="0.6">
<path fill-rule="evenodd" clip-rule="evenodd" d="M142.878 85.5087C144.964 99.0853 94.4314 107.941 50.938 101.761C7.44442 95.5808 -12.5083 71.4469 8.24606 58.5873C29.0005 45.7278 140.795 71.9321 142.878 85.5087Z" fill="#DDE3E9"/>
</g>
</g>
<path d="M57.6669 4.28271H33.2455C32.491 4.28271 31.8793 4.92185 31.8793 5.71027V56.7455C31.8793 57.5339 32.491 58.173 33.2455 58.173H57.6669C58.4214 58.173 59.0331 57.5339 59.0331 56.7455V5.71027C59.0331 4.92185 58.4214 4.28271 57.6669 4.28271Z" fill="#F2F2F2"/>
<path fill-rule="evenodd" clip-rule="evenodd" d="M45.3708 54.7825C46.7855 54.7825 47.9324 53.5841 47.9324 52.1059C47.9324 50.6276 46.7855 49.4292 45.3708 49.4292C43.956 49.4292 42.8091 50.6276 42.8091 52.1059C42.8091 53.5841 43.956 54.7825 45.3708 54.7825Z" fill="white"/>
<path fill-rule="evenodd" clip-rule="evenodd" d="M43.1506 7.8516C43.3393 7.8516 43.4922 7.69189 43.4922 7.49471C43.4922 7.29753 43.3393 7.13782 43.1506 7.13782C42.9619 7.13782 42.8091 7.29753 42.8091 7.49471C42.8091 7.69189 42.9619 7.8516 43.1506 7.8516Z" fill="white"/>
<path d="M47.5909 7.13782H44.6876C44.499 7.13782 44.3461 7.2976 44.3461 7.49471C44.3461 7.69181 44.499 7.8516 44.6876 7.8516H47.5909C47.7795 7.8516 47.9324 7.69181 47.9324 7.49471C47.9324 7.2976 47.7795 7.13782 47.5909 7.13782Z" fill="white"/>
<path d="M55.959 9.27917H34.9533C34.576 9.27917 34.2701 9.59874 34.2701 9.99295V18.2014C34.2701 18.5956 34.576 18.9152 34.9533 18.9152H55.959C56.3363 18.9152 56.6421 18.5956 56.6421 18.2014V9.99295C56.6421 9.59874 56.3363 9.27917 55.959 9.27917Z" fill="white"/>
<mask id="mask1_3_528" style="mask-type:luminance" maskUnits="userSpaceOnUse" x="40" y="12" width="14" height="5">
<path d="M53.3974 12.17H40.9305V16.0245H53.3974V12.17Z" fill="white"/>
</mask>
<g mask="url(#mask1_3_528)">
<path d="M52.885 12.17H41.4429C41.1599 12.17 40.9305 12.4097 40.9305 12.7054V13.0801C40.9305 13.3758 41.1599 13.6154 41.4429 13.6154H52.885C53.168 13.6154 53.3974 13.3758 53.3974 13.0801V12.7054C53.3974 12.4097 53.168 12.17 52.885 12.17Z" fill="#DDE3E9"/>
<path d="M48.7864 14.5791H41.4429C41.1599 14.5791 40.9305 14.8188 40.9305 15.1144V15.4892C40.9305 15.7848 41.1599 16.0245 41.4429 16.0245H48.7864C49.0693 16.0245 49.2987 15.7848 49.2987 15.4892V15.1144C49.2987 14.8188 49.0693 14.5791 48.7864 14.5791Z" fill="#DDE3E9"/>
</g>
<path fill-rule="evenodd" clip-rule="evenodd" d="M37.8565 16.2385C38.9882 16.2385 39.9058 15.2797 39.9058 14.0971C39.9058 12.9146 38.9882 11.9558 37.8565 11.9558C36.7247 11.9558 35.8071 12.9146 35.8071 14.0971C35.8071 15.2797 36.7247 16.2385 37.8565 16.2385Z" fill="#C5CFD6"/>
<path d="M55.959 20.3428H34.9533C34.576 20.3428 34.2701 20.6623 34.2701 21.0566V27.1237C34.2701 27.5179 34.576 27.8375 34.9533 27.8375H55.959C56.3363 27.8375 56.6421 27.5179 56.6421 27.1237V21.0566C56.6421 20.6623 56.3363 20.3428 55.959 20.3428Z" fill="white"/>
<mask id="mask2_3_528" style="mask-type:luminance" maskUnits="userSpaceOnUse" x="40" y="22" width="14" height="4">
<path d="M53.3974 22.5912H40.9305V25.5891H53.3974V22.5912Z" fill="white"/>
</mask>
<g mask="url(#mask2_3_528)">
<path d="M52.885 22.5912H41.4429C41.1599 22.5912 40.9305 22.8309 40.9305 23.1265V23.1801C40.9305 23.4757 41.1599 23.7154 41.4429 23.7154H52.885C53.168 23.7154 53.3974 23.4757 53.3974 23.1801V23.1265C53.3974 22.8309 53.168 22.5912 52.885 22.5912Z" fill="#DDE3E9"/>
<path d="M48.7864 24.4648H41.4429C41.1599 24.4648 40.9305 24.7045 40.9305 25.0002V25.0537C40.9305 25.3494 41.1599 25.589 41.4429 25.589H48.7864C49.0693 25.589 49.2987 25.3494 49.2987 25.0537V25.0002C49.2987 24.7045 49.0693 24.4648 48.7864 24.4648Z" fill="#DDE3E9"/>
</g>
<path fill-rule="evenodd" clip-rule="evenodd" d="M37.8565 26.2314C38.9882 26.2314 39.9058 25.2726 39.9058 24.0901C39.9058 22.9075 38.9882 21.9487 37.8565 21.9487C36.7247 21.9487 35.8071 22.9075 35.8071 24.0901C35.8071 25.2726 36.7247 26.2314 37.8565 26.2314Z" fill="#C5CFD6"/>
<path d="M55.959 29.265H34.9533C34.576 29.265 34.2701 29.5846 34.2701 29.9788V36.0459C34.2701 36.4401 34.576 36.7597 34.9533 36.7597H55.959C56.3363 36.7597 56.6421 36.4401 56.6421 36.0459V29.9788C56.6421 29.5846 56.3363 29.265 55.959 29.265Z" fill="white"/>
<mask id="mask3_3_528" style="mask-type:luminance" maskUnits="userSpaceOnUse" x="40" y="31" width="14" height="4">
<path d="M53.3974 31.5134H40.9305V34.5113H53.3974V31.5134Z" fill="white"/>
</mask>
<g mask="url(#mask3_3_528)">
<path d="M52.885 31.5134H41.4429C41.1599 31.5134 40.9305 31.7531 40.9305 32.0488V32.1023C40.9305 32.398 41.1599 32.6376 41.4429 32.6376H52.885C53.168 32.6376 53.3974 32.398 53.3974 32.1023V32.0488C53.3974 31.7531 53.168 31.5134 52.885 31.5134Z" fill="#DDE3E9"/>
<path d="M48.7864 33.3872H41.4429C41.1599 33.3872 40.9305 33.6269 40.9305 33.9225V33.9761C40.9305 34.2717 41.1599 34.5114 41.4429 34.5114H48.7864C49.0693 34.5114 49.2987 34.2717 49.2987 33.9761V33.9225C49.2987 33.6269 49.0693 33.3872 48.7864 33.3872Z" fill="#DDE3E9"/>
</g>
<path fill-rule="evenodd" clip-rule="evenodd" d="M37.8565 35.1536C38.9882 35.1536 39.9058 34.1949 39.9058 33.0123C39.9058 31.8298 38.9882 30.871 37.8565 30.871C36.7247 30.871 35.8071 31.8298 35.8071 33.0123C35.8071 34.1949 36.7247 35.1536 37.8565 35.1536Z" fill="#AFB9C5"/>
<path d="M55.959 38.1873H34.9533C34.576 38.1873 34.2701 38.5068 34.2701 38.901V44.9682C34.2701 45.3624 34.576 45.6819 34.9533 45.6819H55.959C56.3363 45.6819 56.6421 45.3624 56.6421 44.9682V38.901C56.6421 38.5068 56.3363 38.1873 55.959 38.1873Z" fill="white"/>
<mask id="mask4_3_528" style="mask-type:luminance" maskUnits="userSpaceOnUse" x="40" y="40" width="14" height="4">
<path d="M53.3974 40.4357H40.9305V43.4335H53.3974V40.4357Z" fill="white"/>
</mask>
<g mask="url(#mask4_3_528)">
<path d="M52.885 40.4357H41.4429C41.1599 40.4357 40.9305 40.6753 40.9305 40.971V41.0245C40.9305 41.3202 41.1599 41.5599 41.4429 41.5599H52.885C53.168 41.5599 53.3974 41.3202 53.3974 41.0245V40.971C53.3974 40.6753 53.168 40.4357 52.885 40.4357Z" fill="#DDE3E9"/>
<path d="M48.7864 42.3093H41.4429C41.1599 42.3093 40.9305 42.549 40.9305 42.8447V42.8982C40.9305 43.1938 41.1599 43.4335 41.4429 43.4335H48.7864C49.0693 43.4335 49.2987 43.1938 49.2987 42.8982V42.8447C49.2987 42.549 49.0693 42.3093 48.7864 42.3093Z" fill="#DDE3E9"/>
</g>
<path fill-rule="evenodd" clip-rule="evenodd" d="M37.8565 44.076C38.9882 44.076 39.9058 43.1172 39.9058 41.9347C39.9058 40.7521 38.9882 39.7933 37.8565 39.7933C36.7247 39.7933 35.8071 40.7521 35.8071 41.9347C35.8071 43.1172 36.7247 44.076 37.8565 44.076Z" fill="#C5CFD6"/>
<path fill-rule="evenodd" clip-rule="evenodd" d="M37.0265 47.8232C36.8002 47.8232 36.5746 47.8281 36.3487 47.8402C36.1764 47.8497 35.9132 47.8124 35.7675 47.9246C35.616 48.0411 35.6264 48.2795 35.6502 48.448C35.7752 49.3388 36.0804 50.1286 36.7189 50.7597C37.7021 51.7314 38.8291 52.2251 40.1627 52.445C41.0996 52.5995 41.9644 52.385 42.654 51.6889C43.158 52.6661 43.5402 53.7474 43.7319 54.8388C43.8266 55.3773 43.8554 55.9095 43.8389 56.4578C43.8281 56.809 43.8096 57.1595 43.7736 57.509C43.7579 57.6609 43.6838 57.8907 43.7407 58.0344C43.8074 58.2028 44.0327 58.2193 44.1338 58.0754C44.218 57.9559 44.2026 57.7209 44.2199 57.5794C44.2485 57.3442 44.275 57.1088 44.294 56.8725C44.3249 56.4901 44.3476 56.1066 44.3461 55.7226C44.3421 54.8602 44.1585 53.9944 43.9075 53.1757C43.4259 51.6048 42.6446 50.2089 41.4293 49.1136C40.682 48.4401 39.8267 48.1675 38.8566 48.021C38.2523 47.9298 37.6384 47.8232 37.0265 47.8232Z" fill="#89C5CC"/>
<path fill-rule="evenodd" clip-rule="evenodd" d="M40.5157 54.0688C38.0737 54.0688 36.4291 56.1252 35.6516 58.2627C35.3584 59.0682 35.2897 59.9529 35.1767 60.7987C35.1404 61.0703 35.1539 61.4839 35.0484 61.7257C35.0101 61.8135 34.9224 61.8449 34.9644 61.9645C34.9898 62.0368 35.0395 62.0812 35.1145 62.0955C35.268 62.1251 35.4852 61.9502 35.6169 61.8813C36.7092 61.3089 37.4268 60.4238 38.0123 59.341C38.3753 58.6699 38.7435 57.973 38.9591 57.2362C39.0907 56.786 39.1674 56.3121 39.2125 55.8451C39.2303 55.6611 39.2473 55.4729 39.2463 55.288C39.2453 55.1044 39.1635 55.0073 39.1047 54.8476C39.9195 54.5253 40.8393 54.4375 41.6647 54.7714C42.4281 55.0803 43.0622 55.6772 43.4172 56.4272C43.5094 56.622 43.5807 56.8276 43.6324 57.0375C43.6664 57.1749 43.6679 57.3529 43.731 57.4771C43.8833 57.7784 44.204 57.5771 44.1733 57.2967C44.0874 56.515 43.6594 55.73 43.1122 55.1864C42.4221 54.5009 41.4869 54.0688 40.5157 54.0688Z" fill="#89C5CC"/>
<path d="M68.9382 8.92224H44.5169C43.7623 8.92224 43.1506 9.56138 43.1506 10.3498V61.385C43.1506 62.1734 43.7623 62.8126 44.5169 62.8126H68.9382C69.6928 62.8126 70.3044 62.1734 70.3044 61.385V10.3498C70.3044 9.56138 69.6928 8.92224 68.9382 8.92224Z" fill="#DDE3E9"/>
<path fill-rule="evenodd" clip-rule="evenodd" d="M56.6421 59.4221C58.0569 59.4221 59.2038 58.2236 59.2038 56.7454C59.2038 55.2672 58.0569 54.0687 56.6421 54.0687C55.2274 54.0687 54.0804 55.2672 54.0804 56.7454C54.0804 58.2236 55.2274 59.4221 56.6421 59.4221Z" fill="white"/>
<path fill-rule="evenodd" clip-rule="evenodd" d="M54.422 12.4911C54.6107 12.4911 54.7636 12.3314 54.7636 12.1342C54.7636 11.9371 54.6107 11.7773 54.422 11.7773C54.2333 11.7773 54.0804 11.9371 54.0804 12.1342C54.0804 12.3314 54.2333 12.4911 54.422 12.4911Z" fill="white"/>
<path d="M58.8622 11.7773H55.959C55.7704 11.7773 55.6174 11.9371 55.6174 12.1342C55.6174 12.3313 55.7704 12.4911 55.959 12.4911H58.8622C59.0509 12.4911 59.2038 12.3313 59.2038 12.1342C59.2038 11.9371 59.0509 11.7773 58.8622 11.7773Z" fill="white"/>
<path d="M67.2304 13.9187H46.2246C45.8473 13.9187 45.5415 14.2383 45.5415 14.6325V22.8409C45.5415 23.2351 45.8473 23.5547 46.2246 23.5547H67.2304C67.6077 23.5547 67.9135 23.2351 67.9135 22.8409V14.6325C67.9135 14.2383 67.6077 13.9187 67.2304 13.9187Z" fill="white"/>
<mask id="mask5_3_528" style="mask-type:luminance" maskUnits="userSpaceOnUse" x="47" y="16" width="13" height="5">
<path d="M59.5453 16.8094H47.0785V20.6639H59.5453V16.8094Z" fill="white"/>
</mask>
<g mask="url(#mask5_3_528)">
<path d="M59.033 16.8094H47.5908C47.3079 16.8094 47.0785 17.0491 47.0785 17.3448V17.7195C47.0785 18.0152 47.3079 18.2548 47.5908 18.2548H59.033C59.316 18.2548 59.5453 18.0152 59.5453 17.7195V17.3448C59.5453 17.0491 59.316 16.8094 59.033 16.8094Z" fill="#DDE3E9"/>
<path d="M54.9343 19.2184H47.5908C47.3079 19.2184 47.0785 19.4581 47.0785 19.7537V20.1284C47.0785 20.4241 47.3079 20.6638 47.5908 20.6638H54.9343C55.2173 20.6638 55.4466 20.4241 55.4466 20.1284V19.7537C55.4466 19.4581 55.2173 19.2184 54.9343 19.2184Z" fill="#DDE3E9"/>
</g>
<path fill-rule="evenodd" clip-rule="evenodd" d="M65.5226 19.9858C66.1828 19.9858 66.7181 19.4265 66.7181 18.7367C66.7181 18.0468 66.1828 17.4875 65.5226 17.4875C64.8624 17.4875 64.3271 18.0468 64.3271 18.7367C64.3271 19.4265 64.8624 19.9858 65.5226 19.9858Z" fill="#DDE3E9"/>
<path fill-rule="evenodd" clip-rule="evenodd" d="M65.5226 19.272C65.8056 19.272 66.0349 19.0323 66.0349 18.7366C66.0349 18.4409 65.8056 18.2013 65.5226 18.2013C65.2396 18.2013 65.0103 18.4409 65.0103 18.7366C65.0103 19.0323 65.2396 19.272 65.5226 19.272Z" fill="#F2F2F2"/>
<path d="M67.2304 24.9823H46.2246C45.8473 24.9823 45.5415 25.3019 45.5415 25.6961V31.7632C45.5415 32.1574 45.8473 32.477 46.2246 32.477H67.2304C67.6077 32.477 67.9135 32.1574 67.9135 31.7632V25.6961C67.9135 25.3019 67.6077 24.9823 67.2304 24.9823Z" fill="white"/>
<mask id="mask6_3_528" style="mask-type:luminance" maskUnits="userSpaceOnUse" x="52" y="27" width="13" height="4">
<path d="M64.6687 27.2307H52.2019V30.2286H64.6687V27.2307Z" fill="white"/>
</mask>
<g mask="url(#mask6_3_528)">
<path d="M64.1564 27.2307H52.7142C52.4313 27.2307 52.2019 27.4704 52.2019 27.766V27.8196C52.2019 28.1152 52.4313 28.3549 52.7142 28.3549H64.1564C64.4394 28.3549 64.6687 28.1152 64.6687 27.8196V27.766C64.6687 27.4704 64.4394 27.2307 64.1564 27.2307Z" fill="#DDE3E9"/>
<path d="M60.0577 29.1044H52.7142C52.4313 29.1044 52.2019 29.344 52.2019 29.6397V29.6932C52.2019 29.9889 52.4313 30.2286 52.7142 30.2286H60.0577C60.3407 30.2286 60.5701 29.9889 60.5701 29.6932V29.6397C60.5701 29.344 60.3407 29.1044 60.0577 29.1044Z" fill="#DDE3E9"/>
</g>
<path fill-rule="evenodd" clip-rule="evenodd" d="M49.1278 30.8709C50.2596 30.8709 51.1772 29.9121 51.1772 28.7296C51.1772 27.547 50.2596 26.5883 49.1278 26.5883C47.9961 26.5883 47.0785 27.547 47.0785 28.7296C47.0785 29.9121 47.9961 30.8709 49.1278 30.8709Z" fill="#C5CFD6"/>
<path d="M67.2304 33.9044H46.2246C45.8473 33.9044 45.5415 34.224 45.5415 34.6182V40.6853C45.5415 41.0795 45.8473 41.3991 46.2246 41.3991H67.2304C67.6077 41.3991 67.9135 41.0795 67.9135 40.6853V34.6182C67.9135 34.224 67.6077 33.9044 67.2304 33.9044Z" fill="white"/>
<mask id="mask7_3_528" style="mask-type:luminance" maskUnits="userSpaceOnUse" x="47" y="36" width="13" height="4">
<path d="M59.5453 36.1528H47.0785V39.1507H59.5453V36.1528Z" fill="white"/>
</mask>
<g mask="url(#mask7_3_528)">
<path d="M59.033 36.1528H47.5908C47.3079 36.1528 47.0785 36.3925 47.0785 36.6882V36.7417C47.0785 37.0374 47.3079 37.277 47.5908 37.277H59.033C59.316 37.277 59.5453 37.0374 59.5453 36.7417V36.6882C59.5453 36.3925 59.316 36.1528 59.033 36.1528Z" fill="#DDE3E9"/>
<path d="M54.9343 38.0265H47.5908C47.3079 38.0265 47.0785 38.2662 47.0785 38.5618V38.6154C47.0785 38.911 47.3079 39.1507 47.5908 39.1507H54.9343C55.2173 39.1507 55.4466 38.911 55.4466 38.6154V38.5618C55.4466 38.2662 55.2173 38.0265 54.9343 38.0265Z" fill="#AFB9C5"/>
</g>
<path fill-rule="evenodd" clip-rule="evenodd" d="M65.5226 38.9008C66.1828 38.9008 66.7181 38.3416 66.7181 37.6517C66.7181 36.9618 66.1828 36.4026 65.5226 36.4026C64.8624 36.4026 64.3271 36.9618 64.3271 37.6517C64.3271 38.3416 64.8624 38.9008 65.5226 38.9008Z" fill="#DDE3E9"/>
<path fill-rule="evenodd" clip-rule="evenodd" d="M65.5226 38.187C65.8056 38.187 66.0349 37.9474 66.0349 37.6517C66.0349 37.356 65.8056 37.1163 65.5226 37.1163C65.2396 37.1163 65.0103 37.356 65.0103 37.6517C65.0103 37.9474 65.2396 38.187 65.5226 38.187Z" fill="#F2F2F2"/>
<path d="M67.2304 42.8268H46.2246C45.8473 42.8268 45.5415 43.1464 45.5415 43.5406V49.6077C45.5415 50.0019 45.8473 50.3215 46.2246 50.3215H67.2304C67.6077 50.3215 67.9135 50.0019 67.9135 49.6077V43.5406C67.9135 43.1464 67.6077 42.8268 67.2304 42.8268Z" fill="white"/>
<mask id="mask8_3_528" style="mask-type:luminance" maskUnits="userSpaceOnUse" x="52" y="45" width="13" height="4">
<path d="M64.6687 45.0752H52.2019V48.0731H64.6687V45.0752Z" fill="white"/>
</mask>
<g mask="url(#mask8_3_528)">
<path d="M64.1564 45.0752H52.7142C52.4313 45.0752 52.2019 45.3149 52.2019 45.6105V45.6641C52.2019 45.9597 52.4313 46.1994 52.7142 46.1994H64.1564C64.4394 46.1994 64.6687 45.9597 64.6687 45.6641V45.6105C64.6687 45.3149 64.4394 45.0752 64.1564 45.0752Z" fill="#DDE3E9"/>
<path d="M60.0577 46.9489H52.7142C52.4313 46.9489 52.2019 47.1885 52.2019 47.4842V47.5377C52.2019 47.8334 52.4313 48.0731 52.7142 48.0731H60.0577C60.3407 48.0731 60.5701 47.8334 60.5701 47.5377V47.4842C60.5701 47.1885 60.3407 46.9489 60.0577 46.9489Z" fill="#DDE3E9"/>
</g>
<path fill-rule="evenodd" clip-rule="evenodd" d="M49.1278 48.7155C50.2596 48.7155 51.1772 47.7568 51.1772 46.5742C51.1772 45.3916 50.2596 44.4329 49.1278 44.4329C47.9961 44.4329 47.0785 45.3916 47.0785 46.5742C47.0785 47.7568 47.9961 48.7155 49.1278 48.7155Z" fill="#C5CFD6"/>
<path d="M110.267 13.3833H55.7882C55.0337 13.3833 54.422 14.0224 54.422 14.8109V73.6976C54.422 74.486 55.0337 75.1252 55.7882 75.1252H110.267C111.021 75.1252 111.633 74.486 111.633 73.6976V14.8109C111.633 14.0224 111.021 13.3833 110.267 13.3833Z" fill="#F2F2F2"/>
<path d="M107.534 21.0564H98.3122C97.5576 21.0564 96.9459 21.6955 96.9459 22.484V34.0829C96.9459 34.8713 97.5576 35.5104 98.3122 35.5104H107.534C108.289 35.5104 108.9 34.8713 108.9 34.0829V22.484C108.9 21.6955 108.289 21.0564 107.534 21.0564Z" fill="white"/>
<path fill-rule="evenodd" clip-rule="evenodd" d="M102.923 29.4433C104.432 29.4433 105.656 28.1651 105.656 26.5881C105.656 25.0112 104.432 23.733 102.923 23.733C101.414 23.733 100.191 25.0112 100.191 26.5881C100.191 28.1651 101.414 29.4433 102.923 29.4433Z" fill="#DDE3E9"/>
<path d="M106.68 30.157H99.166C98.8831 30.157 98.6537 30.3967 98.6537 30.6923C98.6537 30.988 98.8831 31.2277 99.166 31.2277H106.68C106.963 31.2277 107.193 30.988 107.193 30.6923C107.193 30.3967 106.963 30.157 106.68 30.157Z" fill="#DDE3E9"/>
<path d="M105.314 31.9415H100.532C100.249 31.9415 100.02 32.1812 100.02 32.4769C100.02 32.7725 100.249 33.0122 100.532 33.0122H105.314C105.597 33.0122 105.826 32.7725 105.826 32.4769C105.826 32.1812 105.597 31.9415 105.314 31.9415Z" fill="#DDE3E9"/>
<path d="M54.422 14.8109C54.422 14.0225 55.0337 13.3833 55.7882 13.3833H110.267C111.021 13.3833 111.633 14.0225 111.633 14.8109V18.2013H54.422V14.8109Z" fill="#C5CFD6"/>
<path fill-rule="evenodd" clip-rule="evenodd" d="M56.6421 16.5953C57.0193 16.5953 57.3252 16.2757 57.3252 15.8815C57.3252 15.4873 57.0193 15.1677 56.6421 15.1677C56.2648 15.1677 55.959 15.4873 55.959 15.8815C55.959 16.2757 56.2648 16.5953 56.6421 16.5953Z" fill="#F2F2F2"/>
<path fill-rule="evenodd" clip-rule="evenodd" d="M58.6914 16.5953C59.0687 16.5953 59.3745 16.2757 59.3745 15.8815C59.3745 15.4873 59.0687 15.1677 58.6914 15.1677C58.3142 15.1677 58.0083 15.4873 58.0083 15.8815C58.0083 16.2757 58.3142 16.5953 58.6914 16.5953Z" fill="#F2F2F2"/>
<path fill-rule="evenodd" clip-rule="evenodd" d="M60.7407 16.5953C61.118 16.5953 61.4238 16.2757 61.4238 15.8815C61.4238 15.4873 61.118 15.1677 60.7407 15.1677C60.3635 15.1677 60.0576 15.4873 60.0576 15.8815C60.0576 16.2757 60.3635 16.5953 60.7407 16.5953Z" fill="#F2F2F2"/>
<path d="M107.534 36.938H98.3122C97.5576 36.938 96.9459 37.5771 96.9459 38.3655V70.1287C96.9459 70.9171 97.5576 71.5563 98.3122 71.5563H107.534C108.289 71.5563 108.9 70.9171 108.9 70.1287V38.3655C108.9 37.5771 108.289 36.938 107.534 36.938Z" fill="white"/>
<path d="M105.143 40.15H100.703C100.326 40.15 100.02 40.4696 100.02 40.8638V44.0758C100.02 44.47 100.326 44.7896 100.703 44.7896H105.143C105.521 44.7896 105.826 44.47 105.826 44.0758V40.8638C105.826 40.4696 105.521 40.15 105.143 40.15Z" fill="#DDE3E9"/>
<path d="M105.143 46.2172H100.703C100.326 46.2172 100.02 46.5367 100.02 46.9309V49.9645C100.02 50.3587 100.326 50.6783 100.703 50.6783H105.143C105.521 50.6783 105.826 50.3587 105.826 49.9645V46.9309C105.826 46.5367 105.521 46.2172 105.143 46.2172Z" fill="#AFB9C5"/>
<path d="M105.143 52.1058H100.703C100.326 52.1058 100.02 52.4254 100.02 52.8196V55.8532C100.02 56.2474 100.326 56.567 100.703 56.567H105.143C105.521 56.567 105.826 56.2474 105.826 55.8532V52.8196C105.826 52.4254 105.521 52.1058 105.143 52.1058Z" fill="#DDE3E9"/>
<path d="M105.143 63.8832H100.703C100.326 63.8832 100.02 64.2027 100.02 64.597V67.6305C100.02 68.0247 100.326 68.3443 100.703 68.3443H105.143C105.521 68.3443 105.826 68.0247 105.826 67.6305V64.597C105.826 64.2027 105.521 63.8832 105.143 63.8832Z" fill="#DDE3E9"/>
<path d="M105.143 57.9945H100.703C100.326 57.9945 100.02 58.3141 100.02 58.7083V61.7418C100.02 62.1361 100.326 62.4556 100.703 62.4556H105.143C105.521 62.4556 105.826 62.1361 105.826 61.7418V58.7083C105.826 58.3141 105.521 57.9945 105.143 57.9945Z" fill="#C5CFD6"/>
<path d="M94.8965 21.2349H57.8375C57.4603 21.2349 57.1544 21.5544 57.1544 21.9486V28.908C57.1544 29.3022 57.4603 29.6218 57.8375 29.6218H94.8965C95.2738 29.6218 95.5796 29.3022 95.5796 28.908V21.9486C95.5796 21.5544 95.2738 21.2349 94.8965 21.2349Z" fill="white"/>
<mask id="mask9_3_528" style="mask-type:luminance" maskUnits="userSpaceOnUse" x="58" y="23" width="30" height="5">
<path d="M87.2114 23.751H58.6914V27.1057H87.2114V23.751Z" fill="white"/>
</mask>
<g mask="url(#mask9_3_528)">
<path d="M86.6991 23.751H59.2037C58.9208 23.751 58.6914 23.9907 58.6914 24.2863V24.4737C58.6914 24.7693 58.9208 25.009 59.2037 25.009H86.6991C86.9821 25.009 87.2114 24.7693 87.2114 24.4737V24.2863C87.2114 23.9907 86.9821 23.751 86.6991 23.751Z" fill="#DDE3E9"/>
<path d="M77.3227 25.8478H59.2037C58.9208 25.8478 58.6914 26.0875 58.6914 26.3831V26.5705C58.6914 26.8661 58.9208 27.1058 59.2037 27.1058H77.3227C77.6056 27.1058 77.835 26.8661 77.835 26.5705V26.3831C77.835 26.0875 77.6056 25.8478 77.3227 25.8478Z" fill="#DDE3E9"/>
</g>
<path fill-rule="evenodd" clip-rule="evenodd" d="M91.473 26.6774C92.1333 26.6774 92.6685 26.1182 92.6685 25.4283C92.6685 24.7384 92.1333 24.1792 91.473 24.1792C90.8128 24.1792 90.2776 24.7384 90.2776 25.4283C90.2776 26.1182 90.8128 26.6774 91.473 26.6774Z" fill="#DDE3E9"/>
<path fill-rule="evenodd" clip-rule="evenodd" d="M91.473 25.9636C91.756 25.9636 91.9854 25.724 91.9854 25.4283C91.9854 25.1326 91.756 24.8929 91.473 24.8929C91.19 24.8929 90.9607 25.1326 90.9607 25.4283C90.9607 25.724 91.19 25.9636 91.473 25.9636Z" fill="#F2F2F2"/>
<path d="M94.8965 31.0493H57.8375C57.4603 31.0493 57.1544 31.3689 57.1544 31.7631V37.2949C57.1544 37.6891 57.4603 38.0087 57.8375 38.0087H94.8965C95.2738 38.0087 95.5796 37.6891 95.5796 37.2949V31.7631C95.5796 31.3689 95.2738 31.0493 94.8965 31.0493Z" fill="white"/>
<mask id="mask10_3_528" style="mask-type:luminance" maskUnits="userSpaceOnUse" x="58" y="33" width="30" height="3">
<path d="M87.2114 33.1371H58.6914V35.9208H87.2114V33.1371Z" fill="white"/>
</mask>
<g mask="url(#mask10_3_528)">
<path d="M86.7119 33.1371H59.1909C58.9151 33.1371 58.6914 33.3708 58.6914 33.659C58.6914 33.9473 58.9151 34.181 59.1909 34.181H86.7119C86.9878 34.181 87.2114 33.9473 87.2114 33.659C87.2114 33.3708 86.9878 33.1371 86.7119 33.1371Z" fill="#DDE3E9"/>
<path d="M77.3355 34.877H59.1909C58.9151 34.877 58.6914 35.1106 58.6914 35.3989C58.6914 35.6872 58.9151 35.9209 59.1909 35.9209H77.3355C77.6114 35.9209 77.835 35.6872 77.835 35.3989C77.835 35.1106 77.6114 34.877 77.3355 34.877Z" fill="#DDE3E9"/>
</g>
<path fill-rule="evenodd" clip-rule="evenodd" d="M91.473 35.7781C92.1333 35.7781 92.6685 35.2189 92.6685 34.529C92.6685 33.8392 92.1333 33.2799 91.473 33.2799C90.8128 33.2799 90.2776 33.8392 90.2776 34.529C90.2776 35.2189 90.8128 35.7781 91.473 35.7781Z" fill="#DDE3E9"/>
<path fill-rule="evenodd" clip-rule="evenodd" d="M91.473 35.0643C91.756 35.0643 91.9854 34.8247 91.9854 34.529C91.9854 34.2333 91.756 33.9937 91.473 33.9937C91.19 33.9937 90.9607 34.2333 90.9607 34.529C90.9607 34.8247 91.19 35.0643 91.473 35.0643Z" fill="#F2F2F2"/>
<path d="M94.8965 39.4363H57.8375C57.4603 39.4363 57.1544 39.7558 57.1544 40.1501V45.6818C57.1544 46.0761 57.4603 46.3956 57.8375 46.3956H94.8965C95.2738 46.3956 95.5796 46.0761 95.5796 45.6818V40.1501C95.5796 39.7558 95.2738 39.4363 94.8965 39.4363Z" fill="white"/>
<mask id="mask11_3_528" style="mask-type:luminance" maskUnits="userSpaceOnUse" x="58" y="41" width="30" height="4">
<path d="M87.2114 41.524H58.6914V44.3078H87.2114V41.524Z" fill="white"/>
</mask>
<g mask="url(#mask11_3_528)">
<path d="M86.7119 41.524H59.1909C58.9151 41.524 58.6914 41.7577 58.6914 42.046C58.6914 42.3343 58.9151 42.5679 59.1909 42.5679H86.7119C86.9878 42.5679 87.2114 42.3343 87.2114 42.046C87.2114 41.7577 86.9878 41.524 86.7119 41.524Z" fill="#DDE3E9"/>
<path d="M77.3355 43.2639H59.1909C58.9151 43.2639 58.6914 43.4976 58.6914 43.7859C58.6914 44.0741 58.9151 44.3078 59.1909 44.3078H77.3355C77.6114 44.3078 77.835 44.0741 77.835 43.7859C77.835 43.4976 77.6114 43.2639 77.3355 43.2639Z" fill="#DDE3E9"/>
</g>
<path fill-rule="evenodd" clip-rule="evenodd" d="M91.473 44.165C92.1333 44.165 92.6685 43.6057 92.6685 42.9159C92.6685 42.226 92.1333 41.6667 91.473 41.6667C90.8128 41.6667 90.2776 42.226 90.2776 42.9159C90.2776 43.6057 90.8128 44.165 91.473 44.165Z" fill="#DDE3E9"/>
<path fill-rule="evenodd" clip-rule="evenodd" d="M91.473 43.4512C91.756 43.4512 91.9854 43.2115 91.9854 42.9158C91.9854 42.6201 91.756 42.3805 91.473 42.3805C91.19 42.3805 90.9607 42.6201 90.9607 42.9158C90.9607 43.2115 91.19 43.4512 91.473 43.4512Z" fill="#AFB9C5"/>
<path d="M94.8965 64.5969H57.8375C57.4603 64.5969 57.1544 64.9165 57.1544 65.3107V70.8425C57.1544 71.2367 57.4603 71.5563 57.8375 71.5563H94.8965C95.2738 71.5563 95.5796 71.2367 95.5796 70.8425V65.3107C95.5796 64.9165 95.2738 64.5969 94.8965 64.5969Z" fill="white"/>
<mask id="mask12_3_528" style="mask-type:luminance" maskUnits="userSpaceOnUse" x="58" y="66" width="30" height="4">
<path d="M87.2114 66.6847H58.6914V69.4684H87.2114V66.6847Z" fill="white"/>
</mask>
<g mask="url(#mask12_3_528)">
<path d="M86.7119 66.6847H59.1909C58.9151 66.6847 58.6914 66.9184 58.6914 67.2066C58.6914 67.4949 58.9151 67.7286 59.1909 67.7286H86.7119C86.9878 67.7286 87.2114 67.4949 87.2114 67.2066C87.2114 66.9184 86.9878 66.6847 86.7119 66.6847Z" fill="#DDE3E9"/>
<path d="M77.3355 68.4246H59.1909C58.9151 68.4246 58.6914 68.6582 58.6914 68.9465C58.6914 69.2348 58.9151 69.4685 59.1909 69.4685H77.3355C77.6114 69.4685 77.835 69.2348 77.835 68.9465C77.835 68.6582 77.6114 68.4246 77.3355 68.4246Z" fill="#DDE3E9"/>
</g>
<path fill-rule="evenodd" clip-rule="evenodd" d="M91.473 69.3257C92.1333 69.3257 92.6685 68.7665 92.6685 68.0766C92.6685 67.3868 92.1333 66.8275 91.473 66.8275C90.8128 66.8275 90.2776 67.3868 90.2776 68.0766C90.2776 68.7665 90.8128 69.3257 91.473 69.3257Z" fill="#DDE3E9"/>
<path fill-rule="evenodd" clip-rule="evenodd" d="M91.473 68.6119C91.756 68.6119 91.9854 68.3723 91.9854 68.0766C91.9854 67.7809 91.756 67.5413 91.473 67.5413C91.19 67.5413 90.9607 67.7809 90.9607 68.0766C90.9607 68.3723 91.19 68.6119 91.473 68.6119Z" fill="#F2F2F2"/>
<path d="M94.8965 56.2101H57.8375C57.4603 56.2101 57.1544 56.5297 57.1544 56.9239V62.4556C57.1544 62.8499 57.4603 63.1694 57.8375 63.1694H94.8965C95.2738 63.1694 95.5796 62.8499 95.5796 62.4556V56.9239C95.5796 56.5297 95.2738 56.2101 94.8965 56.2101Z" fill="white"/>
<mask id="mask13_3_528" style="mask-type:luminance" maskUnits="userSpaceOnUse" x="58" y="58" width="30" height="4">
<path d="M87.2114 58.298H58.6914V61.0817H87.2114V58.298Z" fill="white"/>
</mask>
<g mask="url(#mask13_3_528)">
<path d="M86.7119 58.298H59.1909C58.9151 58.298 58.6914 58.5317 58.6914 58.8199C58.6914 59.1082 58.9151 59.3419 59.1909 59.3419H86.7119C86.9878 59.3419 87.2114 59.1082 87.2114 58.8199C87.2114 58.5317 86.9878 58.298 86.7119 58.298Z" fill="#DDE3E9"/>
<path d="M77.3355 60.0378H59.1909C58.9151 60.0378 58.6914 60.2715 58.6914 60.5598C58.6914 60.8481 58.9151 61.0817 59.1909 61.0817H77.3355C77.6114 61.0817 77.835 60.8481 77.835 60.5598C77.835 60.2715 77.6114 60.0378 77.3355 60.0378Z" fill="#DDE3E9"/>
</g>
<path fill-rule="evenodd" clip-rule="evenodd" d="M91.473 60.9389C92.1333 60.9389 92.6685 60.3797 92.6685 59.6898C92.6685 58.9999 92.1333 58.4407 91.473 58.4407C90.8128 58.4407 90.2776 58.9999 90.2776 59.6898C90.2776 60.3797 90.8128 60.9389 91.473 60.9389Z" fill="#DDE3E9"/>
<path fill-rule="evenodd" clip-rule="evenodd" d="M91.473 60.2251C91.756 60.2251 91.9854 59.9854 91.9854 59.6898C91.9854 59.3941 91.756 59.1544 91.473 59.1544C91.19 59.1544 90.9607 59.3941 90.9607 59.6898C90.9607 59.9854 91.19 60.2251 91.473 60.2251Z" fill="#F2F2F2"/>
<path d="M94.8965 47.8231H57.8375C57.4603 47.8231 57.1544 48.1427 57.1544 48.5369V54.0687C57.1544 54.4629 57.4603 54.7825 57.8375 54.7825H94.8965C95.2738 54.7825 95.5796 54.4629 95.5796 54.0687V48.5369C95.5796 48.1427 95.2738 47.8231 94.8965 47.8231Z" fill="white"/>
<mask id="mask14_3_528" style="mask-type:luminance" maskUnits="userSpaceOnUse" x="58" y="49" width="30" height="4">
<path d="M87.2114 49.9109H58.6914V52.6946H87.2114V49.9109Z" fill="white"/>
</mask>
<g mask="url(#mask14_3_528)">
<path d="M86.7119 49.9109H59.1909C58.9151 49.9109 58.6914 50.1446 58.6914 50.4328C58.6914 50.7211 58.9151 50.9548 59.1909 50.9548H86.7119C86.9878 50.9548 87.2114 50.7211 87.2114 50.4328C87.2114 50.1446 86.9878 49.9109 86.7119 49.9109Z" fill="#DDE3E9"/>
<path d="M77.3355 51.6508H59.1909C58.9151 51.6508 58.6914 51.8844 58.6914 52.1727C58.6914 52.461 58.9151 52.6947 59.1909 52.6947H77.3355C77.6114 52.6947 77.835 52.461 77.835 52.1727C77.835 51.8844 77.6114 51.6508 77.3355 51.6508Z" fill="#DDE3E9"/>
</g>
<path fill-rule="evenodd" clip-rule="evenodd" d="M91.473 52.5519C92.1333 52.5519 92.6685 51.9927 92.6685 51.3028C92.6685 50.613 92.1333 50.0537 91.473 50.0537C90.8128 50.0537 90.2776 50.613 90.2776 51.3028C90.2776 51.9927 90.8128 52.5519 91.473 52.5519Z" fill="#DDE3E9"/>
<path fill-rule="evenodd" clip-rule="evenodd" d="M91.473 51.8381C91.756 51.8381 91.9854 51.5985 91.9854 51.3028C91.9854 51.0071 91.756 50.7675 91.473 50.7675C91.19 50.7675 90.9607 51.0071 90.9607 51.3028C90.9607 51.5985 91.19 51.8381 91.473 51.8381Z" fill="#F2F2F2"/>
<path fill-rule="evenodd" clip-rule="evenodd" d="M125.806 43.786C125.131 43.3087 124.236 43.1836 123.43 43.1836C120.281 43.1836 117.322 44.4042 114.765 46.2229C113.364 47.2193 112.111 48.4884 111.005 49.8096C110.366 50.5725 109.797 51.3974 109.394 52.3151C109.121 52.9345 108.935 53.58 108.808 54.2456C108.654 55.0568 108.531 55.8844 108.476 56.7092C108.454 57.0339 108.274 58.7572 108.791 58.7864C108.787 58.8289 108.787 58.8694 108.79 58.9056C107.668 60.739 106.975 62.8875 106.332 64.9244C105.772 66.6971 105.274 68.4846 104.95 70.3184C104.524 72.7326 104.245 75.1834 104.112 77.6324C104.083 78.1586 104.063 78.6852 104.046 79.2121C104.032 79.6616 104.018 80.1111 104.003 80.5608C103.988 81.0646 103.903 81.6445 103.979 82.1452C104.046 82.5813 104.407 82.5153 104.424 82.0813C104.443 81.5572 104.44 81.0321 104.462 80.5076C104.491 79.8115 104.521 79.1154 104.553 78.4195C104.78 73.585 105.632 68.8216 107.203 64.2551C107.839 62.4071 108.568 60.6578 109.504 58.9483C110.328 57.4453 111.318 55.99 112.33 54.6349C113.314 53.3178 114.337 52.0314 115.543 50.9156C116.521 50.0102 117.598 49.2213 118.703 48.4873C120.109 47.5551 121.511 46.6456 123.034 45.93C123.825 45.5582 124.631 45.2252 125.428 44.8681C125.572 44.8041 125.726 44.7418 125.864 44.6674C126.323 44.4193 126.171 44.0458 125.806 43.786Z" fill="#C1DEE2"/>
<path fill-rule="evenodd" clip-rule="evenodd" d="M113.139 60.6711C114.416 60.6711 115.552 60.8446 116.729 61.3747C117.744 61.8325 118.669 62.4383 119.569 63.0978C120.833 64.0255 121.828 65.1051 122.525 66.5357C122.942 67.3903 123.248 68.5996 122.967 69.5318C122.638 70.6296 121.733 71.5454 120.542 71.3519C119.806 71.2324 119.13 70.7229 118.571 70.2435C117.901 69.6698 117.365 68.9801 116.922 68.214C116.2 66.9644 115.776 65.5518 115.163 64.2459C114.872 63.6262 114.59 63.0022 114.242 62.4131C114.069 62.1215 113.885 61.8326 113.624 61.6158C113.483 61.4998 112.893 61.2993 113.119 61.0389C109.807 61.0842 106.874 63.7416 106.238 67.0311C106.179 67.3377 106.132 67.6467 106.083 67.9553C106.053 68.1499 106.065 68.8684 105.899 68.9927C105.531 69.2672 105.685 68.4333 105.701 68.3132C105.742 68.0029 105.785 67.6929 105.831 67.3833C106.079 65.6999 106.797 64.1349 107.993 62.9344C109.361 61.5616 111.206 60.6711 113.139 60.6711Z" fill="#89C5CC"/>
<path fill-rule="evenodd" clip-rule="evenodd" d="M4.37334 66.5128C7.5611 72.1009 11.274 77.5117 13.5037 83.6215C13.4139 82.9013 13.3186 82.1818 13.2118 81.4636C12.6462 77.6554 11.9429 73.875 11.2042 70.0993C10.8279 68.1769 10.4298 66.2613 10.0217 64.3461C9.80223 63.3174 9.58534 62.2881 9.36128 61.2604C9.30697 61.0113 9.26035 60.5764 9.19255 60.1359C11.3594 67.5658 13.449 75.0012 14.9775 82.6096C15.178 83.6081 15.3488 84.6049 15.4886 85.5999C15.5365 85.3729 15.5836 85.146 15.635 84.9195C16.2536 82.2059 17.1812 79.5139 18.2858 76.9764C18.8139 75.7632 19.4203 74.5763 20.1345 73.4703C20.5799 72.781 21.6302 71.9616 22.0363 71.2555C19.8146 75.5135 19.0123 80.8412 17.7294 85.4702C17.4164 86.5999 17.1013 87.7277 16.7925 88.8574C18.7271 84.8035 21.7287 81.4727 25.9021 80.0294C20.8504 83.5169 17.8205 89.6246 15.7786 95.8712C15.772 95.9453 15.7639 96.0193 15.7569 96.0935C16.3579 94.9021 17.1146 93.8243 18.1403 93.0696C20.3359 91.4536 22.7712 91.9244 24.9008 93.3105C23.2294 92.2004 20.2088 93.2113 18.8024 94.3396C17.7957 95.1473 16.9353 96.2308 16.1882 97.2881C16.0092 97.5415 15.7648 97.8371 15.5068 98.1524C15.145 100.606 14.5555 103.043 13.7207 105.461C13.8586 104.767 13.759 103.657 13.7973 103.14C13.8014 103.084 13.8048 103.028 13.8089 102.972C13.682 103.501 13.5594 104.025 13.4414 104.54C13.676 103.557 13.8034 102.531 13.903 101.495C13.9286 101.05 13.9537 100.604 13.98 100.159C13.9716 99.3139 13.9383 98.4656 13.882 97.6157C13.6823 96.7898 13.4586 96.0108 13.274 95.3628C12.6085 93.025 11.6325 90.7855 10.4314 88.6961C9.33549 86.7894 8.02357 85.0625 6.50928 83.5005C5.69278 82.6586 4.83838 81.857 3.9961 81.0442C3.69143 80.7503 3.14698 80.0278 2.67615 79.6511C6.10538 81.6267 9.63521 83.7637 12.1369 86.9468C11.8435 85.77 11.525 84.6097 11.1881 83.4729C9.47844 77.7045 7.31979 71.7264 4.37334 66.5128Z" fill="#DDE3E9"/>
<path fill-rule="evenodd" clip-rule="evenodd" d="M7.79944 98.1445C7.79944 104.551 8.28496 109.743 14.8014 109.743C21.3178 109.743 21.8033 104.551 21.8033 98.1445" fill="#C5CFD6"/>
<path d="M98.1414 6.24554C98.1414 5.94988 97.912 5.71021 97.629 5.71021C97.3461 5.71021 97.1167 5.94988 97.1167 6.24554V9.63599C97.1167 9.93165 97.3461 10.1713 97.629 10.1713C97.912 10.1713 98.1414 9.93165 98.1414 9.63599V6.24554Z" fill="#DDE3E9"/>
<path d="M100.532 3.39044C100.532 3.09478 100.303 2.8551 100.02 2.8551C99.7369 2.8551 99.5076 3.09478 99.5076 3.39044V9.636C99.5076 9.93166 99.7369 10.1713 100.02 10.1713C100.303 10.1713 100.532 9.93166 100.532 9.636V3.39044Z" fill="#DDE3E9"/>
<path d="M102.923 1.96295C102.923 1.66729 102.694 1.42761 102.411 1.42761C102.128 1.42761 101.898 1.66729 101.898 1.96295V9.63607C101.898 9.93173 102.128 10.1714 102.411 10.1714C102.694 10.1714 102.923 9.93173 102.923 9.63607V1.96295Z" fill="#DDE3E9"/>
<path d="M105.314 3.39044C105.314 3.09478 105.085 2.8551 104.802 2.8551C104.519 2.8551 104.289 3.09478 104.289 3.39044V9.636C104.289 9.93166 104.519 10.1713 104.802 10.1713C105.085 10.1713 105.314 9.93166 105.314 9.636V3.39044Z" fill="#DDE3E9"/>
<path d="M107.705 0.535334C107.705 0.239677 107.476 0 107.193 0C106.91 0 106.68 0.239677 106.68 0.535334V9.63602C106.68 9.93167 106.91 10.1714 107.193 10.1714C107.476 10.1714 107.705 9.93167 107.705 9.63602V0.535334Z" fill="#C5CFD6"/>
<path fill-rule="evenodd" clip-rule="evenodd" d="M13.0936 54.6497C13.0936 52.662 14.631 51.0352 16.5092 51.0352V54.6497L14.175 57.2807C13.511 56.6374 13.0936 55.6938 13.0936 54.6497Z" fill="#F2F2F2"/>
<path fill-rule="evenodd" clip-rule="evenodd" d="M16.4189 54.604H19.8681C19.8681 55.5357 19.5044 56.4086 18.9293 57.043C18.297 57.7368 17.3964 58.1729 16.4189 58.1729C15.5184 58.1729 14.6942 57.7966 14.0616 57.2016L16.4189 54.604Z" fill="#AFB9C5"/>
<path fill-rule="evenodd" clip-rule="evenodd" d="M19.9248 54.6041C19.9248 52.6415 18.3874 51.0352 16.5092 51.0352V54.6041H19.9248ZM14.8014 51.0352L16.1676 54.2472L13.0936 52.8196C13.3976 51.987 14.0802 51.3528 14.8014 51.0352Z" fill="#C5CFD6"/>
<path fill-rule="evenodd" clip-rule="evenodd" d="M124.231 56.2421C123.902 56.6061 123.437 56.8347 122.921 56.8347C121.928 56.8347 121.121 55.9958 121.121 54.961C121.121 53.9262 121.928 53.0873 122.921 53.0873V49.6077C120.095 49.6077 117.781 52.0172 117.781 54.961C117.781 57.9048 120.095 60.3144 122.921 60.3144C124.406 60.3144 125.746 59.6602 126.661 58.6195L124.231 56.2421Z" fill="#F2F2F2"/>
<path fill-rule="evenodd" clip-rule="evenodd" d="M122.904 49.6077V53.0873C123.895 53.0873 124.698 53.9262 124.698 54.961H128.028C128.028 52.0172 125.722 49.6077 122.904 49.6077Z" fill="#AFB9C5"/>
<path fill-rule="evenodd" clip-rule="evenodd" d="M124.629 54.9611C124.629 55.569 124.354 56.1093 123.929 56.4584L126.023 59.2437C127.242 58.2466 128.028 56.7007 128.028 54.9611H124.629Z" fill="#C5CFD6"/>
<path fill-rule="evenodd" clip-rule="evenodd" d="M91.6605 7.04928C91.4081 7.32837 91.0505 7.5036 90.6527 7.5036C89.8885 7.5036 89.2691 6.86049 89.2691 6.06712C89.2691 5.27375 89.8885 4.63064 90.6527 4.63064V1.96289C88.4787 1.96289 86.6992 3.81015 86.6992 6.06712C86.6992 8.32409 88.4787 10.1714 90.6527 10.1714C91.7947 10.1714 92.8268 9.66974 93.5304 8.87192L91.6605 7.04928Z" fill="#F2F2F2"/>
<path fill-rule="evenodd" clip-rule="evenodd" d="M90.6271 1.96289V4.63064C91.3864 4.63064 92.0018 5.27375 92.0018 6.06712H94.555C94.555 3.81015 92.7871 1.96289 90.6271 1.96289Z" fill="#AFB9C5"/>
<path fill-rule="evenodd" clip-rule="evenodd" d="M92.0059 6.06714C92.0059 6.52307 91.8003 6.92849 91.4811 7.19009L93.0516 9.27914C93.9659 8.53128 94.5551 7.37193 94.5551 6.06714H92.0059Z" fill="#C5CFD6"/>
<path fill-rule="evenodd" clip-rule="evenodd" d="M29.4902 10.1691C29.4893 10.1712 29.4885 10.1733 29.4872 10.1759C29.4885 10.1738 29.4902 10.1652 29.4902 10.1691Z" fill="#C5CFD6"/>
<path fill-rule="evenodd" clip-rule="evenodd" d="M29.488 10.1717C29.488 10.172 29.4877 10.1728 29.4877 10.1736C29.4877 10.1717 29.4911 10.166 29.488 10.1717Z" fill="#C5CFD6"/>
<path fill-rule="evenodd" clip-rule="evenodd" d="M29.5003 10.1415C29.4978 10.1487 29.4947 10.1556 29.4919 10.1629C29.4933 10.1593 29.4947 10.1564 29.4961 10.1527C29.4599 10.2472 29.4829 10.1858 29.5003 10.1415Z" fill="#C5CFD6"/>
<path fill-rule="evenodd" clip-rule="evenodd" d="M29.4931 10.163C29.4916 10.1664 29.49 10.1703 29.4885 10.1737C29.4773 10.1953 29.4931 10.163 29.4931 10.163Z" fill="#C5CFD6"/>
<path fill-rule="evenodd" clip-rule="evenodd" d="M29.4868 10.1755C29.4987 10.1559 29.4842 10.1807 29.4868 10.1755V10.1755Z" fill="#C5CFD6"/>
<path fill-rule="evenodd" clip-rule="evenodd" d="M29.488 10.1717L29.4888 10.171C29.4884 10.1714 29.4884 10.1717 29.488 10.1717Z" fill="#C5CFD6"/>
<path d="M36.8319 0.892212H21.9741C21.5969 0.892212 21.291 1.21178 21.291 1.60599V11.4205C21.291 11.8147 21.5969 12.1342 21.9741 12.1342H36.8319C37.2092 12.1342 37.515 11.8147 37.515 11.4205V1.60599C37.515 1.21178 37.2092 0.892212 36.8319 0.892212Z" fill="#DDE3E9"/>
<path fill-rule="evenodd" clip-rule="evenodd" d="M27.439 4.10425L22.6572 12.1343H32.2208L27.439 4.10425Z" fill="#AFB9C5"/>
<path fill-rule="evenodd" clip-rule="evenodd" d="M32.1355 6.24561L27.9514 12.1343H36.3196L32.1355 6.24561Z" fill="#C5CFD6"/>
<path fill-rule="evenodd" clip-rule="evenodd" d="M33.9286 6.24558C34.7776 6.24558 35.4656 5.52662 35.4656 4.63957C35.4656 3.75252 34.7776 3.03357 33.9286 3.03357C33.0797 3.03357 32.3916 3.75252 32.3916 4.63957C32.3916 5.52662 33.0797 6.24558 33.9286 6.24558Z" fill="white"/>
<path fill-rule="evenodd" clip-rule="evenodd" d="M110.948 86.3649C110.949 86.367 110.95 86.3691 110.951 86.3717C110.95 86.3696 110.948 86.361 110.948 86.3649Z" fill="#C5CFD6"/>
<path fill-rule="evenodd" clip-rule="evenodd" d="M110.95 86.3676C110.95 86.368 110.951 86.3687 110.951 86.3695C110.951 86.3676 110.947 86.3619 110.95 86.3676Z" fill="#C5CFD6"/>
<path fill-rule="evenodd" clip-rule="evenodd" d="M110.938 86.3373C110.941 86.3445 110.944 86.3515 110.947 86.3587C110.945 86.3551 110.944 86.3522 110.943 86.3485C110.979 86.443 110.956 86.3816 110.938 86.3373Z" fill="#C5CFD6"/>
<path fill-rule="evenodd" clip-rule="evenodd" d="M110.946 86.3588C110.948 86.3622 110.949 86.3661 110.951 86.3695C110.962 86.3911 110.946 86.3588 110.946 86.3588Z" fill="#C5CFD6"/>
<path fill-rule="evenodd" clip-rule="evenodd" d="M110.952 86.3713C110.94 86.3517 110.955 86.3765 110.952 86.3713V86.3713Z" fill="#C5CFD6"/>
<path fill-rule="evenodd" clip-rule="evenodd" d="M110.95 86.3675L110.949 86.3668C110.95 86.3672 110.95 86.3675 110.95 86.3675Z" fill="#C5CFD6"/>
<path d="M99.5076 72.627H122.392C122.769 72.627 123.075 72.9465 123.075 73.3407V88.687C123.075 89.0812 122.769 89.4008 122.392 89.4008H99.5076C99.1303 89.4008 98.8245 89.0812 98.8245 88.687V73.3407C98.8245 72.9465 99.1303 72.627 99.5076 72.627Z" fill="#DDE3E9"/>
<path fill-rule="evenodd" clip-rule="evenodd" d="M114.071 77.4449L121.082 89.4007H107.059L114.071 77.4449Z" fill="#AFB9C5"/>
<path fill-rule="evenodd" clip-rule="evenodd" d="M106.841 80.6473L113.04 89.4008H100.643L106.841 80.6473Z" fill="#C5CFD6"/>
<path fill-rule="evenodd" clip-rule="evenodd" d="M104.204 80.657C102.931 80.657 101.898 79.5785 101.898 78.248C101.898 76.9175 102.931 75.839 104.204 75.839C105.477 75.839 106.509 76.9175 106.509 78.248C106.509 79.5785 105.477 80.657 104.204 80.657Z" fill="white"/>
<path fill-rule="evenodd" clip-rule="evenodd" d="M39.083 60.0616C40.3252 60.8444 41.5458 61.2227 42.1187 61.0684C43.5555 60.6812 43.6877 55.1852 42.5759 53.0186C41.4643 50.8521 35.7494 49.9076 35.4613 54.2004C35.3612 55.6902 35.9596 57.02 36.8435 58.1049L35.2585 65.8298H39.8627L39.083 60.0616Z" fill="#B28B67"/>
<path fill-rule="evenodd" clip-rule="evenodd" d="M33.4539 52.7715C33.3051 52.6175 33.224 52.3975 33.1538 52.1887C33.0811 51.9717 33.0102 51.7526 32.9619 51.5267C32.8652 51.0756 32.8642 50.5566 33.1721 50.2064C33.4189 49.9255 33.7893 49.7993 34.1312 49.772C34.359 49.7538 34.593 49.787 34.8112 49.8621C35.0278 49.9365 35.2146 50.085 35.4245 50.1771C35.4325 49.6908 35.5123 49.1821 35.7481 48.767C35.9751 48.3675 36.3372 48.1434 36.7492 48.0841C37.1723 48.0233 37.5902 48.1268 37.9688 48.3409C38.0635 48.3944 38.1577 48.4506 38.2475 48.5143C38.3228 48.5675 38.401 48.6318 38.4893 48.6534C38.5878 48.6774 38.6365 48.618 38.7006 48.5429C38.7755 48.4549 38.8601 48.3773 38.9496 48.3086C39.3451 48.0045 39.8641 47.8796 40.3223 48.0618C40.5334 48.1457 40.7388 48.2883 40.8819 48.4847C41.0097 48.66 41.1007 48.9378 41.2769 49.0597C41.3517 49.1116 41.4045 49.0429 41.4726 48.9922C41.5749 48.916 41.6725 48.8318 41.7759 48.7577C41.9213 48.6535 42.0787 48.5757 42.2473 48.5349C42.4941 48.4753 42.8351 48.4892 42.9056 48.8272C42.9321 48.954 42.912 49.0898 42.9033 49.2178C42.8916 49.3934 42.8793 49.569 42.8647 49.7444C42.8537 49.8775 42.8397 50.0061 42.8156 50.1369C42.8028 50.2065 42.7627 50.3364 42.7912 50.4064C42.8271 50.4937 42.9919 50.444 43.0622 50.4471C43.2014 50.453 43.3411 50.4785 43.4697 50.5406C43.5695 50.5889 43.6743 50.6598 43.7163 50.7792C43.7423 50.8525 43.7355 50.928 43.7232 51.0035C43.7085 51.0941 43.7254 51.1421 43.7363 51.2337C43.9231 51.1375 44.5706 50.9237 44.652 51.2738C44.6792 51.3903 44.6174 51.522 44.5702 51.6204C44.4876 51.7929 44.3793 51.9505 44.2685 52.1009C44.0374 52.4144 43.7616 52.685 43.4648 52.9162C43.8125 53.0779 43.9033 53.5547 43.6021 53.8388C43.4692 53.9642 43.2904 53.9922 43.1227 53.9842C43.0614 53.9812 42.9729 53.9566 42.9246 53.9678C42.8986 53.9737 42.8708 53.9967 42.8348 53.9994C42.5981 54.0163 42.331 53.9567 42.0996 53.9018C41.6875 53.804 41.2971 53.5997 40.9784 53.2886C40.8966 53.2089 40.8291 53.163 40.7192 53.1641C40.6227 53.1651 40.5281 53.1928 40.4317 53.1953C40.1768 53.2021 39.9469 53.0718 39.7102 52.9851C39.6959 53.3195 39.6047 53.6878 39.4738 53.9885C39.3673 54.2339 39.1446 54.2695 38.9256 54.291C38.2256 54.3598 37.5232 54.2829 36.8225 54.284C37.5008 54.4444 38.2019 54.5104 38.8742 54.6991C39.1782 54.7844 38.9461 54.9987 38.8162 55.1471C38.6022 55.3916 38.443 55.6946 38.3327 56.0137C38.0009 55.5613 37.4143 55.2633 36.8946 55.4023C36.3204 55.5558 35.916 56.3677 36.2832 56.9516C36.4963 57.2904 36.8812 57.4212 37.2016 57.5668C36.9518 57.8384 36.8913 58.2396 36.7409 58.5776C36.6668 58.7442 36.5626 58.9327 36.3968 58.9908C36.3353 59.0123 36.2634 59.0142 36.2149 59.0665C36.1549 59.1313 36.1408 59.2037 36.0641 59.2594C35.7584 59.4816 35.2811 59.4644 35.01 59.1745C34.7651 58.9121 34.8288 58.4973 35.0334 58.2314C34.7078 58.0893 34.1143 57.9068 34.2437 57.3763C33.5381 57.3272 31.8245 56.1304 32.7716 55.2558C32.2518 54.9485 31.7743 54.1978 32.1082 53.536C32.3654 53.0263 32.9632 52.7986 33.4539 52.7715Z" fill="#191847"/>
<path fill-rule="evenodd" clip-rule="evenodd" d="M28.4716 91.1046H43.2923L45.2342 115.978H23.1725L28.4716 91.1046Z" fill="#C5CFD6"/>
<path fill-rule="evenodd" clip-rule="evenodd" d="M28.4716 91.1046H33.0298L35.758 115.978H23.1725L28.4716 91.1046Z" fill="black" fill-opacity="0.1"/>
<path fill-rule="evenodd" clip-rule="evenodd" d="M51.4352 96.0325C49.7697 99.7258 47.1672 108.691 47.1672 108.691L49.3766 109.747C49.3766 109.747 54.9824 100.322 58.4084 93.8801C58.2487 95.3303 58.0861 96.9631 57.9355 98.6796C57.5786 102.746 57.9353 111.53 58.1273 114.068C58.248 115.663 60.3206 115.329 60.5139 114.064C60.5467 113.85 60.6803 113.098 60.8796 111.975C61.8566 106.473 64.4138 92.0711 64.4183 88.5448C64.4202 87.1258 61.769 85.8512 60.1888 86.8433C59.1035 85.6322 57.0492 84.9343 55.8691 86.9347C55.1189 88.2065 53.3363 91.8168 51.4352 96.0325Z" fill="#B28B67"/>
<path fill-rule="evenodd" clip-rule="evenodd" d="M47.3252 105.372L54.9083 86.5887C56.7249 83.5332 61.8182 87.2106 61.1986 88.9827C59.7922 93.0061 52.6391 106.032 52.2202 107.23L47.3252 105.372Z" fill="#1F28CF"/>
<path fill-rule="evenodd" clip-rule="evenodd" d="M47.4448 107.552C47.3274 107.383 47.0984 107.343 46.9449 107.477C46.631 107.75 46.1513 108.197 45.9822 108.503C45.7228 108.973 45.3748 109.965 45.3748 109.965C45.8961 110.279 54.7454 115.622 54.7454 115.622C54.7454 115.622 55.8078 114.58 55.0763 114.004C54.3451 113.428 53.8693 113.033 53.8693 113.033L50.6223 108.355C50.5657 108.273 50.4561 108.257 50.3798 108.318L49.6907 108.873C49.6907 108.873 48.7659 108.789 48.3104 108.514C48.0217 108.339 47.6663 107.871 47.4448 107.552Z" fill="#E4E4E4"/>
<path fill-rule="evenodd" clip-rule="evenodd" d="M58.1321 112.806C57.9495 112.721 57.7319 112.806 57.6631 113.002C57.5222 113.404 57.3202 114.041 57.3202 114.395C57.3202 114.937 57.493 115.978 57.493 115.978C58.095 115.978 68.3132 115.978 68.3132 115.978C68.3132 115.978 68.735 114.52 67.8263 114.404C66.9176 114.288 66.3166 114.194 66.3166 114.194L61.2677 111.841C61.1798 111.8 61.077 111.843 61.0403 111.936L60.7088 112.777C60.7088 112.777 59.8675 113.187 59.3415 113.187C59.0082 113.187 58.4767 112.967 58.1321 112.806Z" fill="#E4E4E4"/>
<path fill-rule="evenodd" clip-rule="evenodd" d="M64.9498 89.9879C64.9498 95.3171 62.5295 107.748 62.528 108.921L57.3202 108.926C57.3202 108.926 58.4636 92.2877 58.1311 92.1083C57.7986 91.9292 44.5006 93.4966 40.5124 93.4966C34.7612 93.4966 32.3821 89.7045 32.189 82.6797H43.5818C45.9015 82.9391 58.0011 85.4911 62.4947 86.3683C64.4183 86.7438 64.9498 88.5198 64.9498 89.9879Z" fill="#2B44FF"/>
<path fill-rule="evenodd" clip-rule="evenodd" d="M49.4027 85.1397C45.7593 93.0737 30.4224 87.7166 30.4224 87.7166C30.4224 86.3417 30.9439 84.9634 31.4916 83.5159C32.0787 81.9638 32.6963 80.3321 32.7332 78.5396C32.8011 75.2419 33.3908 65.2506 35.8518 61.8755C35.8967 61.7231 35.9421 61.5702 35.9882 61.4167L36.1586 61.5006C36.1851 61.4719 36.2119 61.4441 36.2389 61.4167L41.6087 62.2849C41.6087 64.8245 43.163 67.2326 44.5622 69.4005C44.9025 69.9278 45.2338 70.4411 45.5313 70.9386C45.9209 71.5901 46.3606 72.2533 46.8111 72.933C49.0929 76.3749 51.6539 80.2375 49.4027 85.1397Z" fill="#C1DEE2"/>
<path fill-rule="evenodd" clip-rule="evenodd" d="M42.522 83.6401C42.8811 81.7022 43.1141 80.4084 43.221 79.7589C46.0817 83.1392 47.7343 84.8489 48.1789 84.8879C49.0152 84.9618 49.6329 84.1865 49.8089 84.4044C50.0996 85.3071 49.2783 87.5666 47.7085 87.8951C46.959 88.0521 45.7989 86.4356 45.3209 85.863C45.133 85.6376 44.2 84.8967 42.522 83.6401ZM47.4636 73.3085C48.2052 73.3085 48.6034 73.629 49.042 74.2758C49.4804 74.9225 49.8953 77.9728 49.1914 77.9728C48.4874 77.9728 45.5379 76.7937 45.5379 76.001C45.5379 75.2082 47.5504 74.8725 47.5504 74.2758C47.5504 73.6789 46.7219 73.3085 47.4636 73.3085Z" fill="#B28B67"/>
<path fill-rule="evenodd" clip-rule="evenodd" d="M34.9832 65.1716C33.0997 73.3824 33.867 80.3073 41.0248 86.5888C40.9406 86.9042 40.8902 87.0929 40.8902 87.0929C32.4884 80.9528 32.4843 73.512 34.9832 65.1716Z" fill="black" fill-opacity="0.2"/>
<path fill-rule="evenodd" clip-rule="evenodd" d="M93.1586 47.4038C91.9145 48.1874 90.6921 48.5659 90.1183 48.4113C88.6793 48.0239 88.5471 42.5237 89.6604 40.3554C90.7737 38.187 96.4972 37.2419 96.7856 41.5382C96.8857 43.0291 96.2866 44.3599 95.4013 45.4456L96.9887 53.1765H92.3777L93.1586 47.4038Z" fill="#B28B67"/>
<path fill-rule="evenodd" clip-rule="evenodd" d="M92.2886 37.8563C92.8964 37.7521 94.5326 37.6806 94.8344 37.6806C95.0272 37.6806 95.2362 37.7266 95.3504 37.5418C95.4439 37.3901 95.4097 37.134 95.4375 36.9581C95.47 36.7539 95.5161 36.5523 95.5626 36.3512C95.6951 35.7789 95.8956 35.2345 96.1758 34.7234C96.702 33.7644 97.4727 33.0132 98.4456 32.5762C99.5202 32.0935 100.736 31.983 101.892 32.0808C103.128 32.1856 104.248 32.6122 105.416 33.0137C106.529 33.3963 107.694 33.5467 108.858 33.3601C110.031 33.1718 110.917 32.5077 111.906 31.8774C112.918 31.2321 114.075 30.8101 115.272 30.9072C116.39 30.9976 117.419 31.4798 118.343 32.1238C119.209 32.7262 119.921 33.4513 120.324 34.4714C120.758 35.5689 120.756 36.7735 120.044 37.7436C119.012 39.1494 117.095 39.513 115.5 39.4768C114.577 39.4559 113.671 39.28 112.8 38.96C111.639 38.533 110.635 37.8096 109.549 37.2225C109.039 36.947 108.512 36.7207 107.959 36.5578C107.423 36.3997 106.895 36.3271 106.409 36.6654C105.896 37.0235 105.436 37.3753 104.848 37.5994C104.285 37.8142 103.688 37.9345 103.087 37.9297C101.919 37.9202 100.767 37.54 99.6327 37.2852C98.7074 37.0774 97.7174 36.8704 96.7741 37.0701C96.3804 37.1535 95.8056 37.3255 95.6633 37.753C98.0561 38.2061 98.9959 41.2982 98.3213 43.568C97.9572 44.7932 95.7687 46.2254 94.9179 45.5814C94.3787 45.1733 94.7061 44.6376 94.9179 44.2839C95.3235 43.6067 95.4623 42.7368 94.7117 42.2654C94.0643 41.8587 93.3836 42.8244 93.3706 42.8234C93.1928 42.8087 91.6551 41.9001 90.596 40.5742C89.5508 40.639 89.3923 39.919 89.6418 39.3301C89.8913 38.7414 91.4488 38.0004 92.2886 37.8563Z" fill="#191847"/>
<path fill-rule="evenodd" clip-rule="evenodd" d="M100.056 70.1288L92.8372 94.8375L89.3402 115.85H86.5981L90.2935 70.1288H100.056Z" fill="#997659"/>
<path fill-rule="evenodd" clip-rule="evenodd" d="M102.639 70.1288C102.149 83.6952 102.726 90.6929 102.835 91.9255C102.945 93.158 104.448 101.15 108.006 116.264L105.084 115.214C99.4613 101.352 97.5454 94.1474 96.9005 92.3271C96.2556 90.507 94.5429 83.1074 91.7625 70.1288H102.639Z" fill="#B28B67"/>
<path fill-rule="evenodd" clip-rule="evenodd" d="M107.493 114.955C107.676 114.869 107.894 114.954 107.963 115.151C108.104 115.553 108.306 116.191 108.306 116.545C108.306 117.088 108.133 118.13 108.133 118.13C107.531 118.13 97.3124 118.13 97.3124 118.13C97.3124 118.13 96.8908 116.671 97.7995 116.554C98.708 116.438 99.3092 116.344 99.3092 116.344L104.358 113.988C104.446 113.947 104.549 113.99 104.586 114.083L104.917 114.925C104.917 114.925 105.758 115.336 106.284 115.336C106.617 115.336 107.149 115.116 107.493 114.955Z" fill="#E4E4E4"/>
<path fill-rule="evenodd" clip-rule="evenodd" d="M89.4604 114.955C89.6431 114.869 89.8609 114.954 89.9297 115.151C90.0704 115.553 90.2724 116.191 90.2724 116.545C90.2724 117.088 90.0996 118.13 90.0996 118.13C89.4976 118.13 79.2794 118.13 79.2794 118.13C79.2794 118.13 78.8576 116.671 79.7663 116.554C80.675 116.438 81.2762 116.344 81.2762 116.344L86.3249 113.988C86.4128 113.947 86.5158 113.99 86.5524 114.083L86.884 114.925C86.884 114.925 87.7251 115.336 88.2511 115.336C88.5845 115.336 89.1158 115.116 89.4604 114.955Z" fill="#E4E4E4"/>
<path fill-rule="evenodd" clip-rule="evenodd" d="M101.016 70.1288L97.9462 82.7175H88.5708L89.9686 70.1288H101.016Z" fill="#69A1AC"/>
<path fill-rule="evenodd" clip-rule="evenodd" d="M102.742 70.1288C104.257 74.8829 103.318 82.7175 103.318 82.7175H93.7505L91.1199 70.1288H102.742Z" fill="#89C5CC"/>
<path fill-rule="evenodd" clip-rule="evenodd" d="M113.181 76.4607C112.465 75.3628 107.637 60.5883 107.637 60.5883L103.473 61.2164C103.473 61.2164 110.396 76.6013 110.792 77.3169C111.306 78.2464 110.851 79.7734 110.542 80.8089C110.494 80.969 110.45 81.1174 110.414 81.25C111.061 81.4449 111.308 81.0582 111.567 80.6504C111.861 80.1901 112.171 79.7027 113.096 79.9966C113.454 80.1101 113.797 80.2559 114.132 80.3983C115.291 80.8904 116.355 81.3424 117.578 80.2844C117.772 80.1167 117.935 79.5684 117.319 79.2489C115.785 78.4534 113.531 76.9973 113.181 76.4607ZM77.2981 75.6972L81.9499 69.4218L84.1746 72.3895L79.0337 76.6588C77.939 79.1742 77.2479 80.293 76.9603 80.0154C76.7178 79.7812 76.7736 79.4775 76.825 79.1977C76.8651 78.9798 76.9025 78.7762 76.7941 78.6317C76.5466 78.3016 75.449 78.6726 74.422 79.0712C73.3949 79.4698 73.5671 78.8908 73.7542 78.5744C74.6425 77.5842 75.8237 76.6251 77.2981 75.6972Z" fill="#B28B67"/>
<path fill-rule="evenodd" clip-rule="evenodd" d="M93.2844 50.1258L91.5997 50.073C90.2932 60.009 77.8535 68.4778 77.5166 72.1698C77.393 73.5238 78.3859 74.0533 77.9727 74.5208L80.3307 75.8395C80.6335 75.3456 81.5147 76.0383 83.0527 75.2375C84.5906 74.4366 94.8062 61.4401 93.2844 50.1258Z" fill="#CF4A8E"/>
<path fill-rule="evenodd" clip-rule="evenodd" d="M96.0257 47.6826C96.3947 47.6007 96.7575 47.8469 96.836 48.2326L97.0878 49.4694C100.518 51.4999 109.191 57.799 113.05 71.3296C113.455 72.7509 113.18 73.5846 112.96 74.2505C112.81 74.7063 112.685 75.0835 112.822 75.5168L110.132 76.7334C110.088 76.4051 109.701 76.2072 109.203 75.9518C108.478 75.5805 107.517 75.0878 107.025 73.8961C106.559 72.7666 105.911 71.3656 105.154 69.8124C105.393 71.9816 105.268 74.0273 104.633 75.7996C103.05 80.2211 90.0995 77.5287 88.2462 73.5275C87.2572 71.3922 87.9811 69.3713 88.9387 66.6987C90.1541 63.306 91.7458 58.863 90.688 51.8025L90.2585 49.6924C90.1799 49.307 90.4154 48.928 90.7845 48.846L96.0257 47.6826Z" fill="#CF4A8E"/>
</svg>
